<?xml version="1.0" encoding="utf-8"?>
<!-- Generator: Adobe Illustrator 25.1.0, SVG Export Plug-In . SVG Version: 6.00 Build 0)  -->
<svg version="1.1"
	 id="svg4418" xmlns:cc="http://creativecommons.org/ns#" xmlns:dc="http://purl.org/dc/elements/1.1/" xmlns:inkscape="http://www.inkscape.org/namespaces/inkscape" xmlns:rdf="http://www.w3.org/1999/02/22-rdf-syntax-ns#" xmlns:sodipodi="http://sodipodi.sourceforge.net/DTD/sodipodi-0.dtd" xmlns:svg="http://www.w3.org/2000/svg"
	 xmlns="http://www.w3.org/2000/svg" xmlns:xlink="http://www.w3.org/1999/xlink" x="0px" y="0px" viewBox="0 0 512 512"
	 style="enable-background:new 0 0 512 512;" xml:space="preserve">
<style type="text/css">
	.st0{fill-rule:evenodd;clip-rule:evenodd;fill:#393939;}
</style>
<sodipodi:namedview  bordercolor="#666666" borderopacity="1.0" fit-margin-bottom="0" fit-margin-left="0" fit-margin-right="0" fit-margin-top="0" id="base" inkscape:current-layer="layer1" inkscape:cx="35.405674" inkscape:cy="61.054858" inkscape:document-units="px" inkscape:pageopacity="0.0" inkscape:pageshadow="2" inkscape:window-height="1000" inkscape:window-maximized="1" inkscape:window-width="1680" inkscape:window-x="0" inkscape:window-y="0" inkscape:zoom="3.959798" pagecolor="#ffffff" showgrid="false">
	</sodipodi:namedview>
<g id="layer1" transform="translate(249.70793,-168.71087)" inkscape:groupmode="layer" inkscape:label="Layer 1">
	
		<path id="path2434" inkscape:connector-curvature="0" sodipodi:nodetypes="ccccccccccccccccccccccccccccccccccccccccccccccccsccccccccccccccccccccccccccccccscccccccccccccsccccccccccccccccccccccccccccccccccsccccccccc" class="st0" d="
		M10.5,238.5c-2.5,0.2-5,0.6-7.4,1.3l-168.5,51.4c-15.5,4.7-24.6,20.8-20.6,36.6l19.6,176.9c0.9,8,5,15.4,11.3,20.4l124.6,99.1
		c0.5,0.5,1.1,0.9,1.7,1.3c0.8,0.6,1.6,1.2,2.5,1.7c0.8,0.5,1.7,1,2.6,1.5c0.9,0.4,1.7,0.8,2.6,1.2l0.6,0.2c0.6,0.2,1.3,0.4,1.9,0.6
		c0.6,0.2,1.2,0.3,1.7,0.5l0.4,0.1h0.2c0.7,0.2,1.4,0.3,2.1,0.4l2,0.2h0.5c0.6,0,1.2,0.1,1.8,0.1c0.8,0,1.7-0.1,2.5-0.2
		c1-0.1,2-0.2,3-0.4c1-0.2,2-0.4,3-0.7c2.9-0.8,5.6-2,8.1-3.6l156.7-88c9-5.1,14.8-14.3,15.4-24.6l11.5-189.4
		c0.5-7.9-2.1-15.6-7.3-21.6c-0.2-0.2-0.4-0.5-0.6-0.7c-1.2-1.3-2.4-2.4-3.8-3.5c-0.2-0.2-0.5-0.4-0.7-0.6l-0.5-0.3
		c-0.7-0.5-1.4-1-2.1-1.4c-0.6-0.3-1.2-0.7-1.8-0.9c-0.3-0.1-0.6-0.3-0.9-0.4c-0.6-0.3-1.3-0.6-1.9-0.9l-0.2-0.1
		c-0.4-0.1-0.8-0.3-1.3-0.4L22.5,240.3C18.7,238.9,14.6,238.3,10.5,238.5L10.5,238.5z M4.4,268.4c13.2-1.9,26.1,1.3,28.9,7
		c2.8,5.7-5.7,11.8-18.9,13.7c-13.2,1.9-26.1-1.3-28.8-7C-17.3,276.4-8.8,270.3,4.4,268.4L4.4,268.4z M-80.4,292.3
		c14-2.1,27.6,1.5,30.6,7.9c2.9,6.5-6.1,13.4-20,15.5c-14,2.1-27.6-1.5-30.6-7.9C-103.4,301.4-94.4,294.4-80.4,292.3L-80.4,292.3z
		 M89.9,295.7c14.7,2,24.1,8.7,21.1,14.9c-3.1,6.2-17.5,9.6-32.2,7.6c-14.7-2-24.2-8.8-21.1-15C60.7,297,75.2,293.7,89.9,295.7z
		 M-5.3,296.7c16.3-2,32.2,1.4,35.6,7.6c3.4,6.2-7,12.9-23.3,14.9c-16.3,2-32.3-1.4-35.7-7.6C-32.1,305.3-21.6,298.7-5.3,296.7
		L-5.3,296.7z M0.6,327.6c11.9,0.4,21.8,3.8,24.5,8.8c3.5,6.7-7.3,13.9-24.1,16.1c-16.8,2.2-33.3-1.4-36.8-8.2
		c-3.5-6.7,7.3-14,24.1-16.2C-7.6,327.6-3.4,327.4,0.6,327.6L0.6,327.6z M-140.6,356.5c5.9,0.4,13.1,6.7,18.1,16.9
		c6.7,13.5,7.1,28.7,0.8,33.8c-6.3,5.1-16.8-1.7-23.5-15.2c-6.7-13.5-7.1-28.6-0.8-33.7C-144.4,356.9-142.6,356.4-140.6,356.5
		L-140.6,356.5z M135.2,371.4c2.7-0.4,5.4-0.1,7.8,1c9.5,4.6,11.3,20.5,4.1,35.5c-7.2,15-20.7,23.4-30.2,18.8
		c-9.5-4.6-11.4-20.4-4.2-35.4C118,380.1,127,372.5,135.2,371.4L135.2,371.4z M-74.2,394.3c6.4,0.4,14.3,7.1,19.8,17.8
		c7.3,14.2,7.7,30.1,0.9,35.5c-6.8,5.4-18.3-1.7-25.7-16c-7.3-14.2-7.7-30.2-0.9-35.6C-78.3,394.6-76.3,394.1-74.2,394.3
		L-74.2,394.3z M49.2,407.3c2.7-0.4,5.4-0.1,7.8,1c9.5,4.6,11.3,20.5,4.1,35.5c-7.2,15-20.7,23.4-30.2,18.8
		c-9.5-4.6-11.3-20.4-4.1-35.4C32.1,416,41,408.4,49.2,407.3L49.2,407.3z M-132.7,414c5.4,0.4,12,6.9,16.6,17.2
		c6.1,13.8,6.5,29.1,0.7,34.4c-5.7,5.2-15.4-1.7-21.5-15.4c-6.1-13.8-6.5-29.1-0.7-34.4C-136.2,414.4-134.5,413.8-132.7,414
		L-132.7,414z M-70.1,456.5c6.4,0.4,14.2,7.1,19.7,17.8c7.3,14.2,7.7,30.1,0.9,35.6c-6.8,5.4-18.3-1.7-25.6-16
		c-7.3-14.2-7.7-30.2-0.9-35.6C-74.3,456.9-72.3,456.3-70.1,456.5L-70.1,456.5z M133.3,469.9c2.7-0.4,5.4,0,7.8,1.1
		c9.5,4.6,11.3,20.4,4.1,35.4c-7.2,15-20.7,23.5-30.2,18.9c-9.5-4.6-11.4-20.5-4.2-35.5C116.1,478.6,125.1,471,133.3,469.9
		L133.3,469.9z M-125.6,472.3c5.1,0.3,11.3,5.9,15.6,14.7c5.8,11.8,6,25,0.6,29.5c-5.4,4.5-14.4-1.4-20.2-13.2
		c-5.8-11.8-6-25-0.6-29.5C-128.9,472.7-127.3,472.2-125.6,472.3L-125.6,472.3z M50.2,509.1c2.7-0.4,5.4,0,7.8,1.1
		c9.5,4.6,11.4,20.5,4.2,35.5c-7.2,15-20.8,23.4-30.3,18.8c-9.5-4.6-11.3-20.5-4.1-35.5C33.1,517.8,42,510.2,50.2,509.1L50.2,509.1z
		 M-66.3,515.8c6.4,0.4,14.3,7.1,19.8,17.8c7.3,14.2,7.6,30.1,0.8,35.6c-6.8,5.4-18.3-1.7-25.6-16c-7.3-14.2-7.7-30.1-0.9-35.6
		C-70.5,516.3-68.5,515.7-66.3,515.8L-66.3,515.8z"/>
</g>
</svg>
